<?xml version="1.0" encoding="UTF-8" standalone="no"?>
<svg
   xmlns:dc="http://purl.org/dc/elements/1.1/"
   xmlns:cc="http://creativecommons.org/ns#"
   xmlns:rdf="http://www.w3.org/1999/02/22-rdf-syntax-ns#"
   xmlns:svg="http://www.w3.org/2000/svg"
   xmlns="http://www.w3.org/2000/svg"
   xmlns:sodipodi="http://sodipodi.sourceforge.net/DTD/sodipodi-0.dtd"
   xmlns:inkscape="http://www.inkscape.org/namespaces/inkscape"
   version="1.1"
   width="1000"
   height="500"
   id="svg4136"
   inkscape:version="0.91 r13725"
   sodipodi:docname="pickuptruck.svg">
  <metadata
     id="metadata4150">
    <rdf:RDF>
      <cc:Work
         rdf:about="">
        <dc:format>image/svg+xml</dc:format>
        <dc:type
           rdf:resource="http://purl.org/dc/dcmitype/StillImage" />
        <dc:title></dc:title>
      </cc:Work>
    </rdf:RDF>
  </metadata>
  <defs
     id="defs4148" />
  <sodipodi:namedview
     pagecolor="#ffffff"
     bordercolor="#666666"
     borderopacity="1"
     objecttolerance="10"
     gridtolerance="10"
     guidetolerance="10"
     inkscape:pageopacity="0"
     inkscape:pageshadow="2"
     inkscape:window-width="1366"
     inkscape:window-height="715"
     id="namedview4146"
     showgrid="true"
     showguides="true"
     inkscape:zoom="0.63710321"
     inkscape:cx="389.30018"
     inkscape:cy="391.24371"
     inkscape:window-x="-8"
     inkscape:window-y="-8"
     inkscape:window-maximized="1"
     inkscape:current-layer="svg4136">
    <inkscape:grid
       type="xygrid"
       id="grid4190" />
  </sodipodi:namedview>
  <!-- Created by MarianSigler, mariansigler@gmail.com -->
  <path
     style="fill:#d30000;stroke:none;fill-rule:evenodd;fill-opacity:1"
     d="M 295.78419,86.816926 L 295.78419,335.08252 L 687.71625,335.40310 C 664.71649,354.19396 650.35734,380.09418 650.54503,414.08813 L 261.47933,413.85667 C 257.75238,281.97351 70.642616,282.42223 66.576854,413.09434 C 38.473995,412.88466 34.575813,406.50199 34.304870,380.61469 L 34.304868,281.61469 C 33.952015,237.37253 28.426810,266.57731 61.177014,182.67997 C 94.875059,93.246445 85.585107,101.51291 116.06480,99.204795 L 295.78419,86.816926 z M 217.93865,233.19966 L 219.48981,127.72046 L 119.43969,133.92512 C 101.20003,135.14704 101.04823,135.26154 94.621050,156.41701 L 69.026832,224.66825 C 60.428592,245.60250 61.797130,251.77115 85.314062,248.71131 L 217.93865,233.19966 z M 966.63494,335.59074 L 966.82552,391.36792 L 902.21802,414.23783 L 845.49140,414.20156 C 845.72230,381.85903 832.28136,354.65711 808.44981,335.54893 L 966.63494,335.59074 z "
     id="path4138" />
  <circle
     r="77"
     cx="164"
     cy="412"
     style="fill:black; stroke:none"
     id="circle4142" />
  <path
     style="fill:#52c23d;fill-opacity:1;stroke:#58bd43;stroke-width:26.08139801;stroke-linejoin:bevel;stroke-miterlimit:4;stroke-dasharray:none;stroke-opacity:1"
     d="m 333.82433,98.441338 610.53114,1.739202 0,128.17812 -0.14784,83.06964 -608.15146,-1.85451 0,-82.83902 z"
     id="rect4752-0"
     inkscape:connector-curvature="0"
     sodipodi:nodetypes="ccccccc" />
  <circle
     r="42.593784"
     cx="162.91232"
     cy="410.89017"
     style="fill:#ffffff;fill-opacity:1;stroke:none"
     id="circle4142-6" />
  <circle
     r="77"
     cx="750.14874"
     cy="411.88901"
     style="fill:#000000;stroke:none"
     id="circle4142-8" />
  <circle
     r="42.593784"
     cx="749.06104"
     cy="410.77917"
     style="fill:#ffffff;fill-opacity:1;stroke:none"
     id="circle4142-6-7" />
  <rect
     style="fill:#d30000;fill-opacity:1;stroke:#54c33d;stroke-width:0;stroke-linejoin:bevel;stroke-miterlimit:4;stroke-dasharray:none;stroke-opacity:1"
     id="rect4879"
     width="189.2964"
     height="39.887054"
     x="142.23157"
     y="-77.410057"
     ry="19.943527"
     transform="matrix(0.93753881,0.34788069,-0.33643248,0.94170759,0,0)" />
  <rect
     style="fill:#d30000;fill-opacity:1;stroke:#54c33d;stroke-width:0;stroke-linejoin:bevel;stroke-miterlimit:4;stroke-dasharray:none;stroke-opacity:1"
     id="rect4879-2"
     width="160.39711"
     height="33.216621"
     x="22.308065"
     y="143.63406"
     ry="16.608311"
     transform="matrix(0.35220086,-0.93592444,0.96589446,0.25893606,0,0)" />
  <rect
     style="fill:#0a0a0a;fill-opacity:1;stroke:#54c33d;stroke-width:0;stroke-linejoin:bevel;stroke-miterlimit:4;stroke-dasharray:none;stroke-opacity:1"
     id="rect4949"
     width="180"
     height="160"
     x="179.75136"
     y="-241.9391"
     ry="16.608299"
     transform="matrix(0.93736067,0.34836041,-0.34836041,0.93736067,0,0)" />
  <path
     style="fill:#52c23d;fill-opacity:1;stroke:#58bd43;stroke-width:3.25589466;stroke-linejoin:bevel;stroke-miterlimit:4;stroke-dasharray:none;stroke-opacity:1"
     d="M 424.69777,11.15221 458.61561,40.90939 440.95559,61.37178 429.50223,74.62592 395.73341,44.96523 407.14674,31.74079 Z"
     id="rect4752-0-5"
     inkscape:connector-curvature="0"
     sodipodi:nodetypes="ccccccc"
     inkscape:transform-center-x="401.7758"
     inkscape:transform-center-y="228.63516" />
  <path
     style="fill:#52c23d;fill-opacity:1;stroke:#58bd43;stroke-width:2.32334328;stroke-linejoin:bevel;stroke-miterlimit:4;stroke-dasharray:none;stroke-opacity:1"
     d="m 497.85378,20.04191 28.7879,12.93562 -7.91276,18.01579 -5.13542,11.67245 -28.66816,-12.90236 5.11386,-11.64326 z"
     id="rect4752-0-7-4"
     inkscape:connector-curvature="0"
     sodipodi:nodetypes="ccccccc"
     inkscape:transform-center-x="130.27716"
     inkscape:transform-center-y="-67.492847" />
  <path
     style="fill:#52c23d;fill-opacity:1;stroke:#58bd43;stroke-width:5.27267551;stroke-linejoin:bevel;stroke-miterlimit:4;stroke-dasharray:none;stroke-opacity:1"
     d="m 430.49383,-50.969922 75.62739,-13.717987 8.26137,40.791997 5.33578,26.4399104 -75.34049,13.6256706 -5.33916,-26.363068 z"
     id="rect4752-0-7-4-4"
     inkscape:connector-curvature="0"
     sodipodi:nodetypes="ccccccc"
     inkscape:transform-center-x="47.15583"
     inkscape:transform-center-y="-18.466689" />
  <rect
     style="fill:#d30000;fill-opacity:1;stroke:#54c33d;stroke-width:0;stroke-linejoin:bevel;stroke-miterlimit:4;stroke-dasharray:none;stroke-opacity:1"
     id="rect4879-2-4"
     width="111.78775"
     height="33.136261"
     x="-52.465199"
     y="257.35226"
     ry="16.56813"
     transform="matrix(0.39421413,-0.91901862,0.94403743,0.32983833,0,0)" />
</svg>
