<?xml version="1.0" encoding="UTF-8" standalone="no"?>
<svg
   xmlns:dc="http://purl.org/dc/elements/1.1/"
   xmlns:cc="http://creativecommons.org/ns#"
   xmlns:rdf="http://www.w3.org/1999/02/22-rdf-syntax-ns#"
   xmlns:svg="http://www.w3.org/2000/svg"
   xmlns="http://www.w3.org/2000/svg"
   xmlns:sodipodi="http://sodipodi.sourceforge.net/DTD/sodipodi-0.dtd"
   xmlns:inkscape="http://www.inkscape.org/namespaces/inkscape"
   id="Layer_1"
   data-name="Layer 1"
   viewBox="0 0 600 269"
   version="1.1"
   inkscape:version="0.91 r13725"
   sodipodi:docname="rolloff.svg">
  <metadata
     id="metadata45">
    <rdf:RDF>
      <cc:Work
         rdf:about="">
        <dc:format>image/svg+xml</dc:format>
        <dc:type
           rdf:resource="http://purl.org/dc/dcmitype/StillImage" />
      </cc:Work>
    </rdf:RDF>
  </metadata>
  <sodipodi:namedview
     pagecolor="#ffffff"
     bordercolor="#666666"
     borderopacity="1"
     objecttolerance="10"
     gridtolerance="10"
     guidetolerance="10"
     inkscape:pageopacity="0"
     inkscape:pageshadow="2"
     inkscape:window-width="1366"
     inkscape:window-height="715"
     id="namedview43"
     showgrid="false"
     inkscape:zoom="0.59333333"
     inkscape:cx="300"
     inkscape:cy="134.5"
     inkscape:window-x="-8"
     inkscape:window-y="-8"
     inkscape:window-maximized="1"
     inkscape:current-layer="Layer_1" />
  <defs
     id="defs3">
    <style
       id="style5">.cls-1{fill:#339;}.cls-2{fill:#3c3c3c;}.cls-3{fill:#fff;}</style>
  </defs>
  <title
     id="title7">roll-off-truck</title>
  <path
     class="cls-1"
     d="M214.81,188.6h-45c-24.57,0-37.1,5.14-37.1,30.4H108c-7.19-17-19-27.9-37.37-31C30.33,184.49,20.8,218.6,20.8,218.6s-7.31,0-15.14-.08c-7.29,0-4.38-7.67-4.38-7.67l1.33-5S11,178.49,14.52,164.65c1.79-7,5.48-9.61,12.47-9.53,20.21.22,40.42-.15,60.63.2,5.65.1,8-1.85,9.62-7.08,4.79-15.07,10.32-29.91,15.25-44.94,2.26-6.9,6.65-9.67,13.72-9.64,25.32.14,50.65,0,76,.1,8.47,0,12.42,3.42,12.46,11C214.77,131.65,214.81,188.6,214.81,188.6ZM156,114c-8.9,0-29.09.14-29.09.14l-.81,2.94S118.64,138.7,114.83,150H156Z"
     id="path9"
     style="fill:#b10000;fill-opacity:1" />
  <path
     class="cls-2"
     d="M271.74,162.91l-17,22.42v2.76H227.82V127.89h26.76v39.47l12.95-17.13L255.46,76.87l82.31-54.64,11.15-7.92L354.34-.42,364,2.52c-3,9.63-5.93,18.75-9,28.42l43.81,14.7c-12.17,36.52-24.15,72.49-36.41,109.3l-56.51-19,4.77-12.11,2.85,1s4.62-13,6.81-19.52Q332,70.42,343.63,35.51c.62-1.85,1-3.79,1.87-7.35L306.74,54.27c-7.85,5.29-23.62,15.78-23.62,15.78l-5.51,3.27s14.22,73.47,20.59,106.85c.43,2.23.73,4.49,1.2,7.45H277Zm73.05-23.52c-5.28-11.8-13.92-31.14-13.92-31.14l-1-2s-5.7,17-8.43,25.09Z"
     id="path11" />
  <path
     class="cls-1"
     d="M144.61,229.2c0-14.86-.9-30.79,26.15-30.55,65,.64,130,.22,194.94.22H372c-8.64,7.71-14,17-14.82,30.33Z"
     id="path13"
     style="fill:#b10000;fill-opacity:1" />
  <path
     class="cls-2"
     d="m 396.88707,45.075711 226.10452,81.462249 c -12.37126,36.22988 -24.53151,72.06526 -37.0828,108.95105 L 359.473,153.92407 c 12.57829,-36.4723 24.91032,-72.309181 37.41407,-108.848359 z"
     id="path19"
     inkscape:connector-curvature="0"
     style="fill:#3c3c3c"
     inkscape:transform-center-x="22.770742"
     inkscape:transform-center-y="4.1862635" />
  <path
     class="cls-2"
     d="m 371.36538,232.2 c 0.52,-19.93 16.83,-35.13 37.22,-34.68 a 36,36 0 0 1 35,37.07 c -0.64,19.65 -17.62,35.47 -37.42,34.88 a 35.91,35.91 0 0 1 -34.8,-37.27 z m 36,-18.27"
     id="path23"
     style="fill:#000000;fill-opacity:1"
     inkscape:connector-curvature="0" />
  <path
     class="cls-1"
     d="M470,229.23H455.06c-1-14.49-7.55-24.39-16.08-30.28h14.77c10.9,0,16.41,6,16.24,19.16Z"
     id="path35"
     style="fill:#b10000;fill-opacity:1" />
  <circle
     class="cls-1"
     cx="407.3154"
     cy="232.99001"
     r="7.0700002"
     id="circle41"
     style="fill:#fffff9;fill-opacity:1" />
  <path
     inkscape:connector-curvature="0"
     class="cls-2"
     d="m 27.939987,232.30862 c 0.52,-19.93 16.83,-35.13 37.22,-34.68 a 36,36 0 0 1 35.000003,37.07 c -0.640003,19.65 -17.620003,35.47 -37.420003,34.88 a 35.91,35.91 0 0 1 -34.8,-37.27 z m 36,-18.27"
     id="path23-7"
     style="fill:#000000;fill-opacity:1" />
  <circle
     class="cls-1"
     cx="63.889973"
     cy="233.09862"
     r="7.0700002"
     id="circle41-3"
     style="fill:#ffffff;fill-opacity:1" />
</svg>
