<?xml version="1.0" encoding="UTF-8" standalone="no"?>
<svg
   xmlns:dc="http://purl.org/dc/elements/1.1/"
   xmlns:cc="http://creativecommons.org/ns#"
   xmlns:rdf="http://www.w3.org/1999/02/22-rdf-syntax-ns#"
   xmlns:svg="http://www.w3.org/2000/svg"
   xmlns="http://www.w3.org/2000/svg"
   xmlns:sodipodi="http://sodipodi.sourceforge.net/DTD/sodipodi-0.dtd"
   xmlns:inkscape="http://www.inkscape.org/namespaces/inkscape"
   version="1.1"
   width="1000"
   height="500"
   id="svg4136"
   inkscape:version="0.91 r13725"
   sodipodi:docname="truck1.svg">
  <metadata
     id="metadata4150">
    <rdf:RDF>
      <cc:Work
         rdf:about="">
        <dc:format>image/svg+xml</dc:format>
        <dc:type
           rdf:resource="http://purl.org/dc/dcmitype/StillImage" />
        <dc:title></dc:title>
      </cc:Work>
    </rdf:RDF>
  </metadata>
  <defs
     id="defs4148" />
  <sodipodi:namedview
     pagecolor="#ffffff"
     bordercolor="#666666"
     borderopacity="1"
     objecttolerance="10"
     gridtolerance="10"
     guidetolerance="10"
     inkscape:pageopacity="0"
     inkscape:pageshadow="2"
     inkscape:window-width="1366"
     inkscape:window-height="715"
     id="namedview4146"
     showgrid="true"
     showguides="true"
     inkscape:zoom="0.4505"
     inkscape:cx="389.30018"
     inkscape:cy="-19.096236"
     inkscape:window-x="-8"
     inkscape:window-y="-8"
     inkscape:window-maximized="1"
     inkscape:current-layer="svg4136">
    <inkscape:grid
       type="xygrid"
       id="grid4190" />
  </sodipodi:namedview>
  <!-- Created by MarianSigler, mariansigler@gmail.com -->
  <path
     style="fill:#d30000;stroke:none;fill-rule:evenodd;fill-opacity:1"
     d="M 295.78419,86.816926 L 295.78419,335.08252 L 687.71625,335.40310 C 664.71649,354.19396 650.35734,380.09418 650.54503,414.08813 L 261.47933,413.85667 C 257.75238,281.97351 70.642616,282.42223 66.576854,413.09434 C 38.473995,412.88466 34.575813,406.50199 34.304870,380.61469 L 34.304868,281.61469 C 33.952015,237.37253 28.426810,266.57731 61.177014,182.67997 C 94.875059,93.246445 85.585107,101.51291 116.06480,99.204795 L 295.78419,86.816926 z M 217.93865,233.19966 L 219.48981,127.72046 L 119.43969,133.92512 C 101.20003,135.14704 101.04823,135.26154 94.621050,156.41701 L 69.026832,224.66825 C 60.428592,245.60250 61.797130,251.77115 85.314062,248.71131 L 217.93865,233.19966 z M 966.63494,335.59074 L 966.82552,391.36792 L 902.21802,414.23783 L 845.49140,414.20156 C 845.72230,381.85903 832.28136,354.65711 808.44981,335.54893 L 966.63494,335.59074 z "
     id="path4138" />
  <circle
     r="77"
     cx="164"
     cy="412"
     style="fill:black; stroke:none"
     id="circle4142" />
  <rect
     style="fill:#ffffff;fill-opacity:1;stroke:#54c33d;stroke-width:20;stroke-miterlimit:4;stroke-dasharray:none;stroke-opacity:1"
     id="rect4735"
     width="45.148228"
     height="47.728703"
     x="911.50476"
     y="265.05624"
     ry="23.15049" />
  <path
     style="fill:#52c23d;fill-opacity:1;stroke:#58bd43;stroke-width:29.38527489;stroke-linejoin:bevel;stroke-miterlimit:4;stroke-dasharray:none;stroke-opacity:1"
     d="m 335.47623,37.940133 607.22735,2.219756 0,163.594301 -88.93727,101.58265 -516.07032,2.07259 0,-105.72782 z"
     id="rect4752-0"
     inkscape:connector-curvature="0"
     sodipodi:nodetypes="ccccccc" />
  <circle
     r="42.593784"
     cx="162.91232"
     cy="410.89017"
     style="fill:#ffffff;fill-opacity:1;stroke:none"
     id="circle4142-6" />
  <path
     inkscape:connector-curvature="0"
     style="fill:#d30000;fill-opacity:1;fill-rule:evenodd;stroke:none"
     d="m 274.23036,730.83468 0,248.2656 391.93211,0.32058 c -22.9998,18.79086 -37.359,44.69104 -37.1713,78.68504 L 239.9255,1057.8744 C 236.19855,925.99127 49.088792,926.43999 45.023022,1057.1121 c -28.10286,-0.2097 -32.00104,-6.5924 -32.27198,-32.4797 l 0,-98.99995 c -0.35286,-44.24216 -5.8780604,-15.03738 26.87214,-98.93472 33.69805,-89.43353 24.4081,-81.16706 54.887786,-83.47518 L 274.23036,730.83468 Z m -77.84554,146.38274 1.55116,-105.4792 -100.050122,6.20466 c -18.239656,1.22192 -18.391456,1.33642 -24.818636,22.49189 l -25.59422,68.25124 c -8.59824,20.93425 -7.2297,27.1029 16.28723,24.04306 L 196.38482,877.21742 Z m 748.69625,102.39108 0.1906,55.7772 -64.6075,22.8699 -56.7266,-0.036 c 0.2309,-32.3425 -13.21,-59.54446 -37.0416,-78.65264 l 158.1851,0.0418 z"
     id="path4138-8" />
  <path
     style="fill:#52c23d;fill-opacity:1;stroke:#58bd43;stroke-width:29.38527489;stroke-linejoin:bevel;stroke-miterlimit:4;stroke-dasharray:none;stroke-opacity:1"
     d="m 313.9224,681.95789 607.22737,2.21976 c 0.0657,90.61219 -0.024,181.22415 -0.14707,271.83622 l -604.86054,-4.58668 c 0.64545,-89.83287 -1.00211,-179.64887 -2.21976,-269.4693 z"
     id="rect4752-0-1"
     inkscape:connector-curvature="0"
     sodipodi:nodetypes="ccccc" />
  <circle
     r="77"
     cx="750.14874"
     cy="411.88901"
     style="fill:#000000;stroke:none"
     id="circle4142-8" />
  <circle
     r="42.593784"
     cx="749.06104"
     cy="410.77917"
     style="fill:#ffffff;fill-opacity:1;stroke:none"
     id="circle4142-6-7" />
  <circle
     r="77"
     cx="142.77914"
     cy="1057.9711"
     style="fill:#000000;stroke:none"
     id="circle4142-9" />
  <circle
     r="42.593784"
     cx="141.6915"
     cy="1056.8613"
     style="fill:#ffffff;fill-opacity:1;stroke:none"
     id="circle4142-6-1" />
  <circle
     r="77"
     cx="728.12878"
     cy="1058.6814"
     style="fill:#000000;stroke:none"
     id="circle4142-5" />
  <circle
     r="42.593784"
     cx="727.04108"
     cy="1057.5715"
     style="fill:#ffffff;fill-opacity:1;stroke:none"
     id="circle4142-6-2" />
  <rect
     style="fill:#d30000;fill-opacity:1;stroke:#54c33d;stroke-width:0;stroke-linejoin:bevel;stroke-miterlimit:4;stroke-dasharray:none;stroke-opacity:1"
     id="rect4879"
     width="193.40901"
     height="39.999699"
     x="-27.897436"
     y="679.88715"
     ry="19.999849"
     transform="matrix(0.99661518,-0.08220823,0.07872708,0.99689621,0,0)" />
  <rect
     style="fill:#d30000;fill-opacity:1;stroke:#54c33d;stroke-width:0;stroke-linejoin:bevel;stroke-miterlimit:4;stroke-dasharray:none;stroke-opacity:1"
     id="rect4879-2"
     width="217.82632"
     height="39.999649"
     x="-718.36914"
     y="-18.133627"
     ry="19.999825"
     transform="matrix(-0.06525763,-0.99786845,0.99768617,-0.06798753,0,0)" />
</svg>
